name C:\Users\u0101727\Documents\MyRepositories\upper-imu-dc\OpenSim\subject0\MA\ResultsMA\grid_4nodes_9dim\angles_18.mot
datacolumns 10
datarows 47
range 1850.01000000 1850.47000000
endheader 
time	clav_prot	clav_elev	scapula_abduction	scapula_elevation	scapula_upward_rot	scapula_winging	plane_elv	shoulder_elv	axial_rot	
       1850.01000000	        -50.00000000	         10.00000000	         -3.33333333	          3.33333333	         60.00000000	        -20.00000000	        -30.00000000	        100.00000000	         30.00000000	
       1850.02000000	        -38.33333333	         10.00000000	         -3.33333333	          3.33333333	         60.00000000	        -20.00000000	        -30.00000000	        100.00000000	         30.00000000	
       1850.03000000	        -26.66666667	         10.00000000	         -3.33333333	          3.33333333	         60.00000000	        -20.00000000	        -30.00000000	        100.00000000	         30.00000000	
       1850.04000000	        -15.00000000	         10.00000000	         -3.33333333	          3.33333333	         60.00000000	        -20.00000000	        -30.00000000	        100.00000000	         30.00000000	
       1850.05000000	        -50.00000000	         20.00000000	         -3.33333333	          3.33333333	         60.00000000	        -20.00000000	        -30.00000000	        100.00000000	         30.00000000	
       1850.06000000	        -38.33333333	         20.00000000	         -3.33333333	          3.33333333	         60.00000000	        -20.00000000	        -30.00000000	        100.00000000	         30.00000000	
       1850.07000000	        -26.66666667	         20.00000000	         -3.33333333	          3.33333333	         60.00000000	        -20.00000000	        -30.00000000	        100.00000000	         30.00000000	
       1850.08000000	        -15.00000000	         20.00000000	         -3.33333333	          3.33333333	         60.00000000	        -20.00000000	        -30.00000000	        100.00000000	         30.00000000	
       1850.09000000	        -50.00000000	        -10.00000000	         15.00000000	          3.33333333	         60.00000000	        -20.00000000	        -30.00000000	        100.00000000	         30.00000000	
       1850.10000000	        -38.33333333	        -10.00000000	         15.00000000	          3.33333333	         60.00000000	        -20.00000000	        -30.00000000	        100.00000000	         30.00000000	
       1850.11000000	        -26.66666667	        -10.00000000	         15.00000000	          3.33333333	         60.00000000	        -20.00000000	        -30.00000000	        100.00000000	         30.00000000	
       1850.12000000	        -15.00000000	        -10.00000000	         15.00000000	          3.33333333	         60.00000000	        -20.00000000	        -30.00000000	        100.00000000	         30.00000000	
       1850.13000000	        -50.00000000	          0.00000000	         15.00000000	          3.33333333	         60.00000000	        -20.00000000	        -30.00000000	        100.00000000	         30.00000000	
       1850.14000000	        -38.33333333	          0.00000000	         15.00000000	          3.33333333	         60.00000000	        -20.00000000	        -30.00000000	        100.00000000	         30.00000000	
       1850.15000000	        -26.66666667	          0.00000000	         15.00000000	          3.33333333	         60.00000000	        -20.00000000	        -30.00000000	        100.00000000	         30.00000000	
       1850.16000000	        -15.00000000	          0.00000000	         15.00000000	          3.33333333	         60.00000000	        -20.00000000	        -30.00000000	        100.00000000	         30.00000000	
       1850.17000000	        -50.00000000	         10.00000000	         15.00000000	          3.33333333	         60.00000000	        -20.00000000	        -30.00000000	        100.00000000	         30.00000000	
       1850.18000000	        -38.33333333	         10.00000000	         15.00000000	          3.33333333	         60.00000000	        -20.00000000	        -30.00000000	        100.00000000	         30.00000000	
       1850.19000000	        -26.66666667	         10.00000000	         15.00000000	          3.33333333	         60.00000000	        -20.00000000	        -30.00000000	        100.00000000	         30.00000000	
       1850.20000000	        -15.00000000	         10.00000000	         15.00000000	          3.33333333	         60.00000000	        -20.00000000	        -30.00000000	        100.00000000	         30.00000000	
       1850.21000000	        -50.00000000	         20.00000000	         15.00000000	          3.33333333	         60.00000000	        -20.00000000	        -30.00000000	        100.00000000	         30.00000000	
       1850.22000000	        -38.33333333	         20.00000000	         15.00000000	          3.33333333	         60.00000000	        -20.00000000	        -30.00000000	        100.00000000	         30.00000000	
       1850.23000000	        -26.66666667	         20.00000000	         15.00000000	          3.33333333	         60.00000000	        -20.00000000	        -30.00000000	        100.00000000	         30.00000000	
       1850.24000000	        -15.00000000	         20.00000000	         15.00000000	          3.33333333	         60.00000000	        -20.00000000	        -30.00000000	        100.00000000	         30.00000000	
       1850.25000000	        -50.00000000	        -10.00000000	        -40.00000000	         10.00000000	         60.00000000	        -20.00000000	        -30.00000000	        100.00000000	         30.00000000	
       1850.26000000	        -38.33333333	        -10.00000000	        -40.00000000	         10.00000000	         60.00000000	        -20.00000000	        -30.00000000	        100.00000000	         30.00000000	
       1850.27000000	        -26.66666667	        -10.00000000	        -40.00000000	         10.00000000	         60.00000000	        -20.00000000	        -30.00000000	        100.00000000	         30.00000000	
       1850.28000000	        -15.00000000	        -10.00000000	        -40.00000000	         10.00000000	         60.00000000	        -20.00000000	        -30.00000000	        100.00000000	         30.00000000	
       1850.29000000	        -50.00000000	          0.00000000	        -40.00000000	         10.00000000	         60.00000000	        -20.00000000	        -30.00000000	        100.00000000	         30.00000000	
       1850.30000000	        -38.33333333	          0.00000000	        -40.00000000	         10.00000000	         60.00000000	        -20.00000000	        -30.00000000	        100.00000000	         30.00000000	
       1850.31000000	        -26.66666667	          0.00000000	        -40.00000000	         10.00000000	         60.00000000	        -20.00000000	        -30.00000000	        100.00000000	         30.00000000	
       1850.32000000	        -15.00000000	          0.00000000	        -40.00000000	         10.00000000	         60.00000000	        -20.00000000	        -30.00000000	        100.00000000	         30.00000000	
       1850.33000000	        -50.00000000	         10.00000000	        -40.00000000	         10.00000000	         60.00000000	        -20.00000000	        -30.00000000	        100.00000000	         30.00000000	
       1850.34000000	        -38.33333333	         10.00000000	        -40.00000000	         10.00000000	         60.00000000	        -20.00000000	        -30.00000000	        100.00000000	         30.00000000	
       1850.35000000	        -26.66666667	         10.00000000	        -40.00000000	         10.00000000	         60.00000000	        -20.00000000	        -30.00000000	        100.00000000	         30.00000000	
       1850.36000000	        -15.00000000	         10.00000000	        -40.00000000	         10.00000000	         60.00000000	        -20.00000000	        -30.00000000	        100.00000000	         30.00000000	
       1850.37000000	        -50.00000000	         20.00000000	        -40.00000000	         10.00000000	         60.00000000	        -20.00000000	        -30.00000000	        100.00000000	         30.00000000	
       1850.38000000	        -38.33333333	         20.00000000	        -40.00000000	         10.00000000	         60.00000000	        -20.00000000	        -30.00000000	        100.00000000	         30.00000000	
       1850.39000000	        -26.66666667	         20.00000000	        -40.00000000	         10.00000000	         60.00000000	        -20.00000000	        -30.00000000	        100.00000000	         30.00000000	
       1850.40000000	        -15.00000000	         20.00000000	        -40.00000000	         10.00000000	         60.00000000	        -20.00000000	        -30.00000000	        100.00000000	         30.00000000	
       1850.41000000	        -50.00000000	        -10.00000000	        -21.66666667	         10.00000000	         60.00000000	        -20.00000000	        -30.00000000	        100.00000000	         30.00000000	
       1850.42000000	        -38.33333333	        -10.00000000	        -21.66666667	         10.00000000	         60.00000000	        -20.00000000	        -30.00000000	        100.00000000	         30.00000000	
       1850.43000000	        -26.66666667	        -10.00000000	        -21.66666667	         10.00000000	         60.00000000	        -20.00000000	        -30.00000000	        100.00000000	         30.00000000	
       1850.44000000	        -15.00000000	        -10.00000000	        -21.66666667	         10.00000000	         60.00000000	        -20.00000000	        -30.00000000	        100.00000000	         30.00000000	
       1850.45000000	        -50.00000000	          0.00000000	        -21.66666667	         10.00000000	         60.00000000	        -20.00000000	        -30.00000000	        100.00000000	         30.00000000	
       1850.46000000	        -38.33333333	          0.00000000	        -21.66666667	         10.00000000	         60.00000000	        -20.00000000	        -30.00000000	        100.00000000	         30.00000000	
       1850.47000000	        -26.66666667	          0.00000000	        -21.66666667	         10.00000000	         60.00000000	        -20.00000000	        -30.00000000	        100.00000000	         30.00000000	
